<svg version="1.1" xmlns="http://www.w3.org/2000/svg" xmlns:xlink="http://www.w3.org/1999/xlink" width="129" height="66.5" viewBox="0,0,129,66.5"><g transform="translate(-175.5,-109.5)"><g data-paper-data="{&quot;isPaintingLayer&quot;:true}" fill-rule="nonzero" stroke="none" stroke-linecap="butt" stroke-linejoin="miter" stroke-miterlimit="10" stroke-dasharray="" stroke-dashoffset="0" style="mix-blend-mode: normal"><g stroke-width="0"><path d="M187.97,175.5c-6.61085,0 -11.97,-5.35915 -11.97,-11.97v-39.06c0,-6.61085 5.35915,-11.97 11.97,-11.97h104.06c6.61085,0 11.97,5.35915 11.97,11.97v39.06c0,6.61085 -5.35915,11.97 -11.97,11.97z" fill="#ffffff"/><path d="M292.03,113h-104.06c-6.33,0 -11.47,5.14 -11.47,11.47v39.06c0,6.33 5.15,11.47 11.47,11.47h104.06c6.33,0 11.47,-5.15 11.47,-11.47v-39.06c0,-6.33 -5.15,-11.47 -11.47,-11.47M292.03,112c6.89,0 12.47,5.58 12.47,12.47v39.06c0,6.89 -5.58,12.47 -12.47,12.47h-104.06c-6.89,0 -12.47,-5.58 -12.47,-12.47v-39.06c0,-6.89 5.58,-12.47 12.47,-12.47z" fill="#000000"/></g><text transform="translate(192,161)" font-size="48" xml:space="preserve" fill="#000000" fill-rule="nonzero" stroke="none" stroke-width="1" stroke-linecap="butt" stroke-linejoin="miter" stroke-miterlimit="10" stroke-dasharray="" stroke-dashoffset="0" font-family="AdobeSongStd-Light-GBpc-EUC-H, &quot;Adobe Song Std&quot;" font-weight="300" text-anchor="start" style="mix-blend-mode: normal"><tspan x="0" dy="0">橡皮</tspan></text></g></g></svg>